# xmcd
#
# Track frame offsets: 
#        300
#        12961
#        27915
#        44909
#        57766
#        68992
#        92098
#        108158
#        124146
#        138600
#        153312
#        171462
#        184104
#
# Disc length: 2601 seconds
#
# Revision: 0
# Processed by: cddbd v1.5.2PL0 Copyright (c) Steve Scherf et al.
# Submitted via: ExactAudioCopy v0.95b4
#
DISCID=b90a250d
DTITLE=Demian Band - Devil By My Side
DYEAR=2008
DGENRE=Blues
TTITLE0=Mystery train 
TTITLE1=If You Say You Love Me 
TTITLE2=Drown In My Own Tears 
TTITLE3=Where You Are 
TTITLE4=Kill The Matador 
TTITLE5=Karlsruhe 
TTITLE6=Baby, Please Don't Go 
TTITLE7=The Sky Is Crying 
TTITLE8=Don t Bet With My Money 
TTITLE9=Devil By My Side 
TTITLE10=Check Out How We Sound
TTITLE11=Demian Con E
TTITLE12=Rude Mood 
EXTD=
EXTT0=
EXTT1=
EXTT2=
EXTT3=
EXTT4=
EXTT5=
EXTT6=
EXTT7=
EXTT8=
EXTT9=
EXTT10=
EXTT11=
EXTT12=
PLAYORDER=
